# xmcd
#
# Track frame offsets: 
#        150
#        21349
#        39334
#        63248
#        76641
#        93284
#        108805
#        129674
#        148178
#        166728
#        180903
#
# Disc length: 2589 seconds
#
# Revision: 0
# Processed by: cddbd v1.5.2PL0 Copyright (c) Steve Scherf et al.
# Submitted via: ExactAudioCopy v1.0b1
#
DISCID=7c0a1b0b
DTITLE=Wäinötär - Vala
DYEAR=2010
DGENRE=Pop
TTITLE0=Valavaimo
TTITLE1=Kyynel
TTITLE2=Ad astra
TTITLE3=Ilmatar
TTITLE4=Kirous
TTITLE5=Kuutamo
TTITLE6=Puunpoika
TTITLE7=Matka
TTITLE8=Veenneito
TTITLE9=Velka
TTITLE10=Laula kultani
EXTD=
EXTT0=
EXTT1=
EXTT2=
EXTT3=
EXTT4=
EXTT5=
EXTT6=
EXTT7=
EXTT8=
EXTT9=
EXTT10=
PLAYORDER=
